<?xml version="1.0" encoding="utf-8"?>
<!-- Generator: Adobe Illustrator 15.1.0, SVG Export Plug-In . SVG Version: 6.00 Build 0)  -->
<!DOCTYPE svg PUBLIC "-//W3C//DTD SVG 1.1//EN" "http://www.w3.org/Graphics/SVG/1.1/DTD/svg11.dtd">
<svg version="1.1" id="Ebene_1" xmlns="http://www.w3.org/2000/svg" xmlns:xlink="http://www.w3.org/1999/xlink" x="0px" y="0px"
	 width="608.979px" height="182.467px" viewBox="0 0 608.979 182.467" enable-background="new 0 0 608.979 182.467"
	 xml:space="preserve">
<path fill="#575756" d="M74.08,159.66c-20.856,0-37.771,5.106-37.771,11.403c0,6.295,16.913,11.402,37.771,11.402
	s37.77-5.107,37.77-11.402C111.85,164.767,94.938,159.66,74.08,159.66z M74.08,174.903c-7.024,0-12.723-1.721-12.723-3.84
	c0-2.121,5.697-3.842,12.723-3.842c7.024,0,12.722,1.721,12.722,3.842S81.105,174.903,74.08,174.903z"/>
<path fill="#66A130" d="M146.683,70.5L77.659,1.477c-1.97-1.969-5.189-1.969-7.158,0L1.477,70.5c-1.969,1.969-1.969,5.189,0,7.158
	L8.118,84.3c1.968,1.969,5.188,1.969,7.157,0l8.259-8.258c0.824,6.899,3.017,13.378,6.314,19.148h-0.017l44.248,75.836h0.001
	l44.248-75.836h-0.018c3.298-5.771,5.49-12.249,6.314-19.147l8.257,8.257c1.969,1.969,5.19,1.969,7.159,0l6.641-6.642
	C148.652,75.689,148.652,72.469,146.683,70.5z M75.255,109.038c-20.905,0-37.85-16.943-37.85-37.849c0-2.28,0.214-4.509,0.6-6.677
	l6.437-6.438l24.136-24.133c0.026-0.005,0.054-0.008,0.081-0.013l3.431-3.431c1.837-1.513,4.498-1.512,6.334,0.003l3.427,3.427
	c0.027,0.005,0.054,0.008,0.081,0.013l30.573,30.573c0.386,2.168,0.599,4.397,0.599,6.676
	C113.103,92.095,96.157,109.038,75.255,109.038z"/>
<g>
	<rect x="58.622" y="56.259" fill="#575756" width="14.931" height="14.931"/>
	<rect x="76.957" y="56.259" fill="#575756" width="14.931" height="14.931"/>
	<rect x="58.622" y="74.337" fill="#575756" width="14.931" height="14.93"/>
	<rect x="76.957" y="74.337" fill="#575756" width="14.931" height="14.93"/>
</g>
<g>
	<path fill="#4E4E4E" d="M233.837,75.143h7.006v43.383c0,7.642-0.668,13.229-2.002,16.765c-1.835,5.004-5.021,8.856-9.557,11.56
		c-4.538,2.703-9.992,4.053-16.363,4.053c-4.671,0-8.866-0.662-12.585-1.981c-3.72-1.321-6.748-3.096-9.083-5.319
		c-2.335-2.227-4.487-5.479-6.455-9.762h7.605c2.07,3.604,4.743,6.271,8.017,8.008c3.271,1.732,7.332,2.602,12.174,2.602
		c4.776,0,8.81-0.891,12.1-2.668c3.29-1.779,5.637-4.016,7.039-6.709c1.403-2.692,2.104-7.039,2.104-13.041v-2.803
		c-2.638,3.336-5.861,5.896-9.668,7.683c-3.808,1.784-7.849,2.676-12.121,2.676c-5.009,0-9.718-1.241-14.126-3.728
		c-4.408-2.484-7.814-5.83-10.218-10.032c-2.404-4.204-3.606-8.824-3.606-13.861c0-5.036,1.251-9.731,3.757-14.086
		c2.504-4.354,5.97-7.799,10.395-10.334c4.424-2.534,9.091-3.803,14-3.803c4.072,0,7.873,0.843,11.396,2.527
		c3.523,1.685,6.92,4.462,10.193,8.333L233.837,75.143L233.837,75.143z M213.17,80.498c-3.97,0-7.656,0.959-11.06,2.877
		c-3.402,1.918-6.071,4.57-8.006,7.956c-1.935,3.387-2.901,7.048-2.901,10.982c0,5.974,2.001,10.91,6.005,14.813
		c4.003,3.901,9.189,5.854,15.562,5.854c6.438,0,11.617-1.936,15.538-5.805c3.919-3.869,5.879-8.959,5.879-15.264
		c0-4.104-0.899-7.764-2.702-10.982c-1.802-3.22-4.354-5.764-7.655-7.632C220.527,81.431,216.974,80.498,213.17,80.498z"/>
	<path fill="#4E4E4E" d="M301.691,111.521l5.904,3.104c-1.938,3.804-4.173,6.873-6.711,9.207c-2.539,2.336-5.393,4.11-8.565,5.33
		c-3.173,1.217-6.763,1.825-10.769,1.825c-8.882,0-15.827-2.909-20.835-8.731c-5.009-5.819-7.513-12.399-7.513-19.741
		c0-6.904,2.119-13.06,6.36-18.463c5.375-6.873,12.571-10.309,21.586-10.309c9.282,0,16.694,3.521,22.237,10.559
		c3.939,4.971,5.941,11.176,6.01,18.614h-48.989c0.134,6.324,2.154,11.509,6.063,15.552c3.908,4.044,8.734,6.066,14.479,6.066
		c2.772,0,5.469-0.481,8.092-1.446c2.622-0.964,4.851-2.242,6.688-3.838C297.565,117.653,299.553,115.078,301.691,111.521z
		 M301.691,96.86c-0.935-3.735-2.296-6.722-4.084-8.958c-1.787-2.234-4.149-4.036-7.089-5.404c-2.939-1.367-6.029-2.052-9.269-2.052
		c-5.346,0-9.938,1.719-13.778,5.154c-2.806,2.502-4.927,6.255-6.363,11.259H301.691z"/>
	<path fill="#4E4E4E" d="M348.228,73.742c8.388,0,15.339,3.036,20.854,9.107c5.014,5.537,7.52,12.093,7.52,19.666
		c0,7.605-2.649,14.252-7.945,19.94c-5.297,5.688-12.105,8.53-20.427,8.53c-8.355,0-15.181-2.842-20.478-8.53
		c-5.298-5.688-7.945-12.335-7.945-19.94c0-7.539,2.505-14.078,7.52-19.616C332.837,76.794,339.806,73.742,348.228,73.742z
		 M348.201,80.598c-5.823,0-10.83,2.151-15.015,6.455c-4.185,4.303-6.277,9.508-6.277,15.613c0,3.937,0.955,7.604,2.863,11.008
		s4.485,6.029,7.733,7.882c3.247,1.852,6.813,2.776,10.695,2.776c3.884,0,7.448-0.927,10.696-2.776
		c3.247-1.853,5.824-4.479,7.733-7.882c1.906-3.401,2.861-7.071,2.861-11.008c0-6.104-2.101-11.311-6.303-15.613
		C358.99,82.749,353.992,80.598,348.201,80.598z"/>
	<path fill="#4E4E4E" d="M388.555,75.143h13.66v6.255c2.337-2.568,4.933-4.487,7.787-5.754c2.854-1.268,5.968-1.902,9.34-1.902
		c3.403,0,6.475,0.835,9.213,2.502c2.736,1.668,4.94,4.103,6.609,7.306c2.17-3.203,4.832-5.638,7.986-7.306
		c3.155-1.667,6.604-2.502,10.342-2.502c3.871,0,7.276,0.9,10.215,2.702c2.938,1.802,5.051,4.153,6.336,7.056
		c1.284,2.903,1.928,7.623,1.928,14.161v31.925h-13.762v-27.621c0-6.172-0.769-10.35-2.302-12.535
		c-1.535-2.185-3.837-3.277-6.904-3.277c-2.337,0-4.43,0.667-6.28,2.002c-1.853,1.334-3.229,3.177-4.129,5.528
		c-0.9,2.354-1.352,6.131-1.352,11.336v24.567h-13.762v-26.37c0-4.869-0.359-8.398-1.077-10.583
		c-0.72-2.186-1.798-3.813-3.234-4.879c-1.438-1.067-3.178-1.602-5.218-1.602c-2.273,0-4.339,0.676-6.194,2.025
		c-1.856,1.352-3.243,3.246-4.162,5.681c-0.919,2.435-1.38,6.271-1.38,11.509v24.219h-13.66V75.143z"/>
	<path fill="#4E4E4E" d="M525.161,75.143h13.661v54.443h-13.661v-5.754c-2.666,2.535-5.34,4.362-8.021,5.479
		c-2.684,1.117-5.59,1.676-8.722,1.676c-7.031,0-13.112-2.729-18.243-8.182c-5.132-5.455-7.697-12.234-7.697-20.342
		c0-8.406,2.482-15.295,7.447-20.666c4.965-5.371,10.996-8.057,18.094-8.057c3.265,0,6.329,0.618,9.195,1.852
		c2.864,1.234,5.515,3.086,7.946,5.554V75.143z M510.802,86.352c-4.224,0-7.73,1.494-10.523,4.479
		c-2.793,2.986-4.188,6.814-4.188,11.484c0,4.703,1.421,8.574,4.264,11.608c2.843,3.037,6.342,4.556,10.499,4.556
		c4.289,0,7.847-1.494,10.672-4.479s4.239-6.897,4.239-11.733c0-4.736-1.414-8.574-4.239-11.51
		C518.699,87.821,515.123,86.352,510.802,86.352z"/>
	<path fill="#4E4E4E" d="M566.195,75.143v6.004c2.469-2.468,5.138-4.319,8.006-5.554c2.869-1.233,5.938-1.853,9.207-1.853
		c7.105,0,13.145,2.687,18.115,8.057c4.97,5.371,7.455,12.26,7.455,20.666c0,8.107-2.569,14.887-7.706,20.342
		c-5.138,5.453-11.226,8.182-18.265,8.182c-3.137,0-6.056-0.559-8.758-1.676c-2.7-1.117-5.387-2.944-8.056-5.479v25.67h-13.561
		V75.143H566.195z M580.557,86.352c-4.304,0-7.873,1.469-10.709,4.404c-2.835,2.937-4.253,6.772-4.253,11.511
		c0,4.836,1.418,8.748,4.253,11.732c2.836,2.986,6.405,4.479,10.709,4.479c4.17,0,7.681-1.518,10.533-4.555
		c2.853-3.035,4.277-6.904,4.277-11.609c0-4.67-1.4-8.498-4.203-11.483C588.362,87.846,584.825,86.352,580.557,86.352z"/>
	<g>
		<path fill="#66A130" d="M257.669,137.541h1.698v16.993h-1.698V137.541z"/>
		<path fill="#66A130" d="M262.983,141.966h1.617v2.172c0.563-0.801,1.142-1.386,1.734-1.756c0.816-0.492,1.677-0.738,2.579-0.738
			c0.608,0,1.187,0.119,1.733,0.356c0.548,0.239,0.995,0.558,1.343,0.953c0.347,0.397,0.646,0.965,0.901,1.704
			c0.538-0.985,1.209-1.734,2.018-2.247c0.807-0.513,1.675-0.769,2.604-0.769c0.868,0,1.634,0.219,2.299,0.658
			c0.665,0.438,1.158,1.051,1.48,1.838c0.323,0.784,0.483,1.963,0.483,3.533v6.862h-1.65v-6.862c0-1.348-0.097-2.271-0.288-2.777
			c-0.192-0.504-0.521-0.91-0.984-1.219c-0.464-0.308-1.019-0.463-1.664-0.463c-0.782,0-1.499,0.23-2.146,0.693
			c-0.649,0.463-1.123,1.078-1.422,1.849c-0.3,0.771-0.449,2.058-0.449,3.858v4.921h-1.617v-6.433c0-1.518-0.095-2.547-0.283-3.09
			s-0.518-0.979-0.987-1.307c-0.471-0.326-1.028-0.491-1.676-0.491c-0.747,0-1.445,0.226-2.097,0.677
			c-0.651,0.45-1.132,1.057-1.444,1.818c-0.312,0.764-0.467,1.93-0.467,3.501v5.325h-1.617L262.983,141.966L262.983,141.966z"/>
		<path fill="#66A130" d="M285.174,141.966h1.617v2.172c0.563-0.801,1.141-1.386,1.733-1.756c0.817-0.492,1.678-0.738,2.579-0.738
			c0.609,0,1.188,0.119,1.734,0.356c0.548,0.239,0.995,0.558,1.342,0.953c0.347,0.397,0.647,0.965,0.902,1.704
			c0.538-0.985,1.209-1.734,2.017-2.247c0.807-0.513,1.675-0.769,2.604-0.769c0.868,0,1.635,0.219,2.3,0.658
			c0.665,0.438,1.157,1.051,1.479,1.838c0.323,0.784,0.484,1.963,0.484,3.533v6.862h-1.651v-6.862c0-1.348-0.096-2.271-0.288-2.777
			c-0.191-0.504-0.521-0.91-0.983-1.219c-0.465-0.308-1.02-0.463-1.664-0.463c-0.783,0-1.499,0.23-2.147,0.693
			s-1.123,1.078-1.422,1.849s-0.449,2.058-0.449,3.858v4.921h-1.616v-6.433c0-1.518-0.096-2.547-0.283-3.09
			c-0.189-0.543-0.519-0.979-0.988-1.307c-0.47-0.326-1.028-0.491-1.675-0.491c-0.747,0-1.446,0.226-2.097,0.677
			c-0.651,0.45-1.132,1.057-1.444,1.818c-0.312,0.764-0.467,1.93-0.467,3.501v5.325h-1.617L285.174,141.966L285.174,141.966z"/>
		<path fill="#66A130" d="M313.323,141.644c1.937,0,3.542,0.701,4.814,2.103c1.158,1.278,1.737,2.792,1.737,4.54
			c0,1.756-0.612,3.29-1.836,4.604c-1.222,1.313-2.794,1.969-4.716,1.969c-1.928,0-3.504-0.656-4.727-1.969
			c-1.224-1.313-1.834-2.848-1.834-4.604c0-1.741,0.579-3.251,1.735-4.529C309.772,142.349,311.38,141.644,313.323,141.644z
			 M313.319,143.226c-1.345,0-2.5,0.496-3.466,1.489s-1.449,2.195-1.449,3.604c0,0.908,0.222,1.756,0.661,2.541
			c0.44,0.785,1.035,1.393,1.785,1.818c0.75,0.428,1.573,0.643,2.47,0.643c0.897,0,1.72-0.215,2.469-0.643
			c0.75-0.427,1.346-1.033,1.786-1.818s0.66-1.633,0.66-2.541c0-1.409-0.484-2.611-1.455-3.604S314.656,143.226,313.319,143.226z"/>
		<path fill="#66A130" d="M322.971,154.534v-17.42h1.617v7.012c0.676-0.831,1.435-1.453,2.272-1.865s1.758-0.617,2.758-0.617
			c1.777,0,3.295,0.645,4.553,1.936c1.258,1.289,1.887,2.854,1.887,4.693c0,1.818-0.635,3.371-1.904,4.656
			c-1.269,1.285-2.796,1.93-4.581,1.93c-1.023,0-1.95-0.221-2.78-0.658c-0.831-0.439-1.566-1.098-2.204-1.977v2.312L322.971,154.534
			L322.971,154.534z M329.439,153.298c0.899,0,1.729-0.222,2.489-0.664c0.761-0.441,1.365-1.064,1.814-1.865
			c0.45-0.801,0.676-1.647,0.676-2.541c0-0.895-0.228-1.744-0.681-2.554s-1.062-1.438-1.827-1.889
			c-0.764-0.45-1.581-0.677-2.448-0.677c-0.884,0-1.724,0.227-2.519,0.677s-1.406,1.058-1.833,1.819
			c-0.426,0.763-0.639,1.621-0.639,2.576c0,1.455,0.478,2.672,1.434,3.649C326.863,152.81,328.04,153.298,329.439,153.298z"/>
		<path fill="#66A130" d="M339.563,136.791c0.368,0,0.683,0.131,0.943,0.394c0.26,0.262,0.392,0.578,0.392,0.946
			c0,0.361-0.131,0.675-0.392,0.937c-0.262,0.262-0.575,0.393-0.943,0.393c-0.36,0-0.671-0.131-0.932-0.393
			c-0.262-0.262-0.392-0.574-0.392-0.937c0-0.368,0.13-0.687,0.392-0.946C338.892,136.923,339.202,136.791,339.563,136.791z
			 M338.762,141.966h1.617v12.568h-1.617V141.966z"/>
		<path fill="#66A130" d="M343.496,137.114h1.617v17.42h-1.617V137.114z"/>
		<path fill="#66A130" d="M349.035,136.791c0.368,0,0.684,0.131,0.943,0.394c0.26,0.262,0.392,0.578,0.392,0.946
			c0,0.361-0.131,0.675-0.392,0.937s-0.575,0.393-0.943,0.393c-0.359,0-0.671-0.131-0.932-0.393s-0.391-0.574-0.391-0.937
			c0-0.368,0.13-0.687,0.391-0.946C348.365,136.923,348.676,136.791,349.035,136.791z M348.233,141.966h1.617v12.568h-1.617V141.966
			z"/>
		<path fill="#66A130" d="M363.793,150.362l1.362,0.718c-0.446,0.878-0.964,1.586-1.55,2.125s-1.244,0.948-1.978,1.229
			c-0.731,0.281-1.562,0.422-2.485,0.422c-2.05,0-3.653-0.672-4.81-2.016c-1.157-1.344-1.734-2.861-1.734-4.557
			c0-1.596,0.489-3.016,1.468-4.264c1.241-1.586,2.902-2.379,4.983-2.379c2.143,0,3.854,0.813,5.133,2.438
			c0.91,1.146,1.373,2.578,1.388,4.297h-11.309c0.031,1.46,0.498,2.656,1.398,3.59c0.902,0.936,2.018,1.4,3.344,1.4
			c0.64,0,1.263-0.111,1.866-0.334c0.605-0.223,1.12-0.518,1.544-0.887C362.841,151.778,363.3,151.185,363.793,150.362z
			 M363.793,146.979c-0.217-0.863-0.53-1.553-0.943-2.067c-0.412-0.517-0.957-0.933-1.636-1.248
			c-0.68-0.315-1.393-0.474-2.141-0.474c-1.233,0-2.294,0.396-3.181,1.188c-0.647,0.578-1.137,1.444-1.469,2.601H363.793z"/>
		<path fill="#66A130" d="M368.587,141.966h1.616v2.254c0.647-0.863,1.363-1.509,2.148-1.937c0.786-0.427,1.642-0.642,2.564-0.642
			c0.939,0,1.772,0.239,2.502,0.717c0.727,0.478,1.265,1.119,1.61,1.929c0.347,0.81,0.521,2.067,0.521,3.778v6.469h-1.618v-5.995
			c0-1.448-0.061-2.414-0.179-2.899c-0.188-0.832-0.548-1.457-1.078-1.877c-0.532-0.42-1.226-0.63-2.08-0.63
			c-0.979,0-1.854,0.323-2.629,0.972c-0.773,0.646-1.284,1.447-1.53,2.401c-0.154,0.623-0.231,1.765-0.231,3.419v4.609h-1.616
			V141.966L368.587,141.966z"/>
		<path fill="#66A130" d="M384.794,151.992c0.392,0,0.727,0.14,1.005,0.416c0.276,0.276,0.416,0.616,0.416,1.017
			c0,0.395-0.14,0.729-0.416,1.012c-0.278,0.281-0.613,0.422-1.005,0.422c-0.395,0-0.729-0.142-1.007-0.422
			c-0.275-0.281-0.415-0.617-0.415-1.012c0-0.4,0.14-0.738,0.415-1.017C384.065,152.132,384.4,151.992,384.794,151.992z"/>
		<path fill="#66A130" d="M389.056,154.534l2.433-16.993h0.277l6.907,13.942l6.841-13.942h0.271l2.445,16.993h-1.665l-1.679-12.152
			l-6.008,12.152h-0.436l-6.079-12.245l-1.669,12.245H389.056z"/>
		<path fill="#66A130" d="M423.825,141.966v12.568h-1.594v-2.16c-0.678,0.824-1.438,1.443-2.281,1.859
			c-0.843,0.416-1.766,0.623-2.767,0.623c-1.778,0-3.298-0.645-4.557-1.935c-1.261-1.29-1.891-2.858-1.891-4.707
			c0-1.812,0.636-3.358,1.906-4.646c1.271-1.284,2.8-1.928,4.586-1.928c1.032,0,1.966,0.219,2.801,0.657
			c0.836,0.438,1.569,1.099,2.201,1.976v-2.311h1.595V141.966z M417.363,143.202c-0.899,0-1.729,0.221-2.492,0.662
			c-0.762,0.443-1.366,1.064-1.816,1.865c-0.45,0.799-0.675,1.646-0.675,2.537c0,0.885,0.228,1.73,0.681,2.539
			c0.454,0.807,1.063,1.436,1.829,1.887c0.766,0.449,1.587,0.674,2.464,0.674c0.884,0,1.722-0.223,2.515-0.668
			c0.792-0.446,1.402-1.051,1.828-1.813c0.429-0.762,0.643-1.619,0.643-2.572c0-1.455-0.479-2.67-1.438-3.646
			C419.942,143.69,418.764,143.202,417.363,143.202z"/>
		<path fill="#66A130" d="M426.853,141.966h1.652v1.838c0.491-0.726,1.013-1.266,1.559-1.623c0.547-0.357,1.117-0.537,1.71-0.537
			c0.446,0,0.924,0.143,1.433,0.426l-0.844,1.363c-0.339-0.146-0.623-0.22-0.854-0.22c-0.539,0-1.06,0.222-1.561,0.665
			c-0.5,0.443-0.882,1.13-1.144,2.063c-0.2,0.715-0.3,2.164-0.3,4.344v4.251h-1.652V141.966z"/>
		<path fill="#66A130" d="M434.569,137.114h1.617v9.924l5.827-5.072h2.374l-6.907,5.995l7.312,6.573h-2.275l-6.329-5.658v5.658
			h-1.617L434.569,137.114L434.569,137.114z"/>
		<path fill="#66A130" d="M447.865,137.299h1.617v4.667h2.564v1.398h-2.564v11.17h-1.617v-11.17h-2.207v-1.398h2.207V137.299z"/>
		<path fill="#66A130" d="M456.252,151.992c0.393,0,0.728,0.14,1.005,0.416c0.276,0.276,0.416,0.616,0.416,1.017
			c0,0.395-0.14,0.729-0.416,1.012c-0.277,0.281-0.612,0.422-1.005,0.422c-0.395,0-0.729-0.142-1.007-0.422
			c-0.275-0.281-0.415-0.617-0.415-1.012c0-0.4,0.14-0.738,0.415-1.017C455.523,152.132,455.858,151.992,456.252,151.992z"/>
		<path fill="#66A130" d="M461.287,154.534v-16.993h3.523c2.541,0,4.386,0.204,5.533,0.612c1.646,0.578,2.936,1.578,3.863,3.004
			c0.929,1.425,1.393,3.123,1.393,5.094c0,1.703-0.367,3.2-1.104,4.494c-0.734,1.294-1.689,2.249-2.863,2.863
			c-1.176,0.617-2.82,0.926-4.938,0.926H461.287z M462.916,152.929h1.965c2.349,0,3.978-0.146,4.886-0.439
			c1.278-0.414,2.284-1.162,3.016-2.243c0.731-1.082,1.098-2.403,1.098-3.966c0-1.639-0.396-3.038-1.189-4.2
			c-0.793-1.161-1.898-1.958-3.313-2.39c-1.063-0.323-2.815-0.484-5.258-0.484h-1.2v13.723H462.916z"/>
		<path fill="#66A130" d="M491.148,141.966v12.568h-1.594v-2.16c-0.678,0.824-1.438,1.443-2.281,1.859s-1.766,0.623-2.767,0.623
			c-1.779,0-3.299-0.645-4.558-1.935c-1.26-1.29-1.89-2.858-1.89-4.707c0-1.812,0.636-3.358,1.906-4.646
			c1.271-1.284,2.8-1.928,4.586-1.928c1.031,0,1.965,0.219,2.801,0.657s1.569,1.099,2.201,1.976v-2.311h1.595V141.966z
			 M484.686,143.202c-0.9,0-1.73,0.221-2.492,0.662c-0.762,0.443-1.367,1.064-1.816,1.865c-0.45,0.799-0.676,1.646-0.676,2.537
			c0,0.885,0.229,1.73,0.682,2.539c0.454,0.807,1.063,1.436,1.828,1.887c0.766,0.449,1.587,0.674,2.465,0.674
			c0.884,0,1.722-0.223,2.515-0.668c0.792-0.446,1.401-1.051,1.828-1.813c0.428-0.762,0.642-1.619,0.642-2.572
			c0-1.455-0.479-2.67-1.438-3.646C487.265,143.69,486.086,143.202,484.686,143.202z"/>
		<path fill="#66A130" d="M496.197,137.299h1.616v4.667h2.564v1.398h-2.564v11.17h-1.616v-11.17h-2.207v-1.398h2.207V137.299z"/>
		<path fill="#66A130" d="M513.386,150.362l1.361,0.718c-0.446,0.878-0.963,1.586-1.549,2.125s-1.245,0.948-1.978,1.229
			c-0.733,0.281-1.562,0.422-2.485,0.422c-2.051,0-3.654-0.672-4.811-2.016c-1.157-1.344-1.734-2.861-1.734-4.557
			c0-1.596,0.49-3.016,1.469-4.264c1.241-1.586,2.902-2.379,4.983-2.379c2.143,0,3.854,0.813,5.133,2.438
			c0.91,1.146,1.372,2.578,1.388,4.297h-11.309c0.03,1.46,0.497,2.656,1.399,3.59c0.9,0.936,2.017,1.4,3.343,1.4
			c0.639,0,1.262-0.111,1.867-0.334c0.604-0.223,1.118-0.518,1.544-0.887C512.433,151.778,512.892,151.185,513.386,150.362z
			 M513.386,146.979c-0.216-0.863-0.53-1.553-0.943-2.067c-0.412-0.517-0.958-0.933-1.637-1.248s-1.393-0.474-2.14-0.474
			c-1.233,0-2.295,0.396-3.182,1.188c-0.646,0.578-1.137,1.444-1.469,2.601H513.386z"/>
		<path fill="#66A130" d="M518.18,141.966h1.617v2.254c0.646-0.863,1.361-1.509,2.147-1.937c0.786-0.427,1.642-0.642,2.564-0.642
			c0.938,0,1.772,0.239,2.501,0.717c0.728,0.478,1.265,1.119,1.61,1.929c0.348,0.81,0.521,2.067,0.521,3.778v6.469h-1.618v-5.995
			c0-1.448-0.06-2.414-0.18-2.899c-0.188-0.832-0.547-1.457-1.078-1.877s-1.225-0.63-2.079-0.63c-0.979,0-1.854,0.323-2.629,0.972
			c-0.773,0.646-1.284,1.447-1.53,2.401c-0.155,0.623-0.23,1.765-0.23,3.419v4.609h-1.617V141.966z"/>
		<path fill="#66A130" d="M534.387,151.992c0.393,0,0.728,0.14,1.005,0.416s0.416,0.616,0.416,1.017
			c0,0.395-0.139,0.729-0.416,1.012c-0.277,0.281-0.612,0.422-1.005,0.422c-0.395,0-0.729-0.142-1.006-0.422
			c-0.276-0.281-0.415-0.617-0.415-1.012c0-0.4,0.139-0.738,0.415-1.017C533.657,152.132,533.992,151.992,534.387,151.992z"/>
	</g>
</g>
</svg>
